<svg xmlns="http://www.w3.org/2000/svg" viewBox="0 0 512 512" preserveAspectRatio="xMidYMid meet">
  <!-- Definitions for the letter shapes -->
  <defs>
    <g id="gujab-text">
      <!-- Letter G -->
      <path d="M148 206 C144 198 138 190 128 190 C108 190 92 215 92 255 C92 295 106 320 130 320 C146 320 156 310 158 290 L138 290 C136 298 132 302 128 302 C118 302 118 280 118 270 L160 270 C162 260 162 240 158 225 L145 235 L145 255 L135 255 L135 220 Z M130 170 C145 170 160 180 165 195 L175 185 C165 160 140 150 115 155 L110 175 C120 170 125 170 130 170 Z" fill="#1a1a1a"/>
      
      <!-- Letter u -->
      <path d="M185 210 L185 285 L195 295 L215 295 L225 285 L225 210 L205 210 L205 275 L205 275 L195 275 L195 210 Z" fill="#1a1a1a"/>
      
      <!-- Letter j (Stem - Red) -->
      <path d="M255 210 L255 330 C255 355 235 370 215 365 L210 350 C225 355 235 345 235 330 L235 210 L245 200 L265 200 Z" fill="#d61a25"/>
      
      <!-- Letter j (Dot - Black) -->
      <circle cx="250" cy="180" r="12" fill="#1a1a1a"/>
      
      <!-- Letter a -->
      <path d="M280 230 L280 285 L290 295 L310 295 L315 290 L315 230 L300 230 L300 275 L295 275 L295 230 Z M280 230 C280 215 290 210 300 210 L315 210 L315 225 L300 225 C295 225 295 228 295 230 Z" fill="#1a1a1a"/>
      
      <!-- Letter b -->
      <path d="M340 160 L340 285 L350 295 L370 295 L380 285 L380 225 C380 210 365 210 355 215 L355 160 Z M355 235 C360 230 365 230 365 240 L365 275 L355 275 L355 235 Z" fill="#1a1a1a"/>
    </g>
  </defs>

  <!-- Group for the sticker composition -->
  <g transform="translate(0, 10)"> <!-- Slight vertical centering adjustment -->
    
    <!-- Sticker Outline (White Background Blob) -->
    <!-- We use the defined text shape, stroke it heavily with white, and place it behind -->
    <use href="#gujab-text" stroke="#ffffff" stroke-width="45" stroke-linejoin="round" stroke-linecap="round"/>
    
    <!-- Actual Text -->
    <use href="#gujab-text"/>
    
  </g>
</svg>